HIERARCHY
ROOT Root
{
  OFFSET 0.0 0.0 0.0
  CHANNELS 6 Xposition Yposition Zposition Zrotation Yrotation Xrotation
  JOINT Hips
  {
    OFFSET 0.0 100.0 0.0
    CHANNELS 6 Xposition Yposition Zposition Zrotation Yrotation Xrotation
    JOINT Spine1
    {
      OFFSET -0.013727 5.003763 -0.053727
      CHANNELS 3 Zrotation Yrotation Xrotation
      JOINT Spine2
      {
        OFFSET -0.0 7.125301 -0.029825
        CHANNELS 3 Zrotation Yrotation Xrotation
        JOINT Chest
        {
          OFFSET -1e-06 7.550063 -0.815971
          CHANNELS 3 Zrotation Yrotation Xrotation
          JOINT Neck1
          {
            OFFSET -0.181677 26.311295 -0.553348
            CHANNELS 3 Zrotation Yrotation Xrotation
            JOINT Neck2
            {
              OFFSET -3e-06 7.709397 2.302585
              CHANNELS 3 Zrotation Yrotation Xrotation
              JOINT Head
              {
                OFFSET -5e-06 6.128916 1.953709
                CHANNELS 3 Zrotation Yrotation Xrotation
                JOINT HeadEnd
                {
                  OFFSET 0.003598 16.065403 -1.835379
                  CHANNELS 3 Zrotation Yrotation Xrotation
                }
                JOINT Jaw
                {
                  OFFSET 0.002637 0.475592 3.094941
                  CHANNELS 3 Zrotation Yrotation Xrotation
                }
                JOINT LeftEye
                {
                  OFFSET 3.206381 5.380205 7.586883
                  CHANNELS 3 Zrotation Yrotation Xrotation
                }
                JOINT RightEye
                {
                  OFFSET -3.22244 5.361869 7.558234
                  CHANNELS 3 Zrotation Yrotation Xrotation
                }
              }
            }
          }
          JOINT LeftShoulder
          {
            OFFSET 1.621652 23.237164 5.113413
            CHANNELS 3 Zrotation Yrotation Xrotation
            JOINT LeftArm
            {
              OFFSET 14.919846 2e-06 -5.502326
              CHANNELS 3 Zrotation Yrotation Xrotation
              JOINT LeftForeArm
              {
                OFFSET 28.739307 0.0 -0.002588
                CHANNELS 3 Zrotation Yrotation Xrotation
                JOINT LeftHand
                {
                  OFFSET 27.093981 -1e-06 0.002609
                  CHANNELS 3 Zrotation Yrotation Xrotation
                  JOINT LeftHandThumb1
                  {
                    OFFSET 2.276482 -1.392045 3.191413
                    CHANNELS 3 Zrotation Yrotation Xrotation
                    JOINT LeftHandThumb2
                    {
                      OFFSET 4.012836 -1.828127 1.641654
                      CHANNELS 3 Zrotation Yrotation Xrotation
                      JOINT LeftHandThumb3
                      {
                        OFFSET 2.798515 0.0 -3e-06
                        CHANNELS 3 Zrotation Yrotation Xrotation
                        JOINT LeftHandThumbEnd
                        {
                          OFFSET 3.180793 -4e-06 4e-06
                          CHANNELS 3 Zrotation Yrotation Xrotation
                        }
                      }
                    }
                  }
                  JOINT LeftHandIndex1
                  {
                    OFFSET 3.247555 -0.531998 2.296169
                    CHANNELS 3 Zrotation Yrotation Xrotation
                    JOINT LeftHandIndex2
                    {
                      OFFSET 6.364578 0.01206 0.1786
                      CHANNELS 3 Zrotation Yrotation Xrotation
                      JOINT LeftHandIndex3
                      {
                        OFFSET 3.662364 0.0 0.0
                        CHANNELS 3 Zrotation Yrotation Xrotation
                        JOINT LeftHandIndex4
                        {
                          OFFSET 2.329242 4e-06 4e-06
                          CHANNELS 3 Zrotation Yrotation Xrotation
                          JOINT LeftHandIndexEnd
                          {
                            OFFSET 2.759615 -0.180537 -0.113024
                            CHANNELS 3 Zrotation Yrotation Xrotation
                          }
                        }
                      }
                    }
                  }
                  JOINT LeftHandMiddle1
                  {
                    OFFSET 3.163495 0.240981 1.000332
                    CHANNELS 3 Zrotation Yrotation Xrotation
                    JOINT LeftHandMiddle2
                    {
                      OFFSET 6.19078 -0.259278 -1.002548
                      CHANNELS 3 Zrotation Yrotation Xrotation
                      JOINT LeftHandMiddle3
                      {
                        OFFSET 4.35652 -4e-06 -1e-06
                        CHANNELS 3 Zrotation Yrotation Xrotation
                        JOINT LeftHandMiddle4
                        {
                          OFFSET 2.996877 -8e-06 0.0
                          CHANNELS 3 Zrotation Yrotation Xrotation
                          JOINT LeftHandMiddleEnd
                          {
                            OFFSET 2.304287 -0.294569 -0.031741
                            CHANNELS 3 Zrotation Yrotation Xrotation
                          }
                        }
                      }
                    }
                  }
                  JOINT LeftHandRing1
                  {
                    OFFSET 2.882643 -0.053652 -0.322543
                    CHANNELS 3 Zrotation Yrotation Xrotation
                    JOINT LeftHandRing2
                    {
                      OFFSET 5.854541 -0.486202 -1.373841
                      CHANNELS 3 Zrotation Yrotation Xrotation
                      JOINT LeftHandRing3
                      {
                        OFFSET 4.350578 0.0 3e-06
                        CHANNELS 3 Zrotation Yrotation Xrotation
                        JOINT LeftHandRing4
                        {
                          OFFSET 2.651321 7e-06 2e-06
                          CHANNELS 3 Zrotation Yrotation Xrotation
                          JOINT LeftHandRingEnd
                          {
                            OFFSET 1.936105 0.077687 -7.1e-05
                            CHANNELS 3 Zrotation Yrotation Xrotation
                          }
                        }
                      }
                    }
                  }
                  JOINT LeftHandPinky1
                  {
                    OFFSET 2.8655 -0.310005 -1.600378
                    CHANNELS 3 Zrotation Yrotation Xrotation
                    JOINT LeftHandPinky2
                    {
                      OFFSET 5.087849 -1.331141 -1.77123
                      CHANNELS 3 Zrotation Yrotation Xrotation
                      JOINT LeftHandPinky3
                      {
                        OFFSET 3.070974 4e-06 0.0
                        CHANNELS 3 Zrotation Yrotation Xrotation
                        JOINT LeftHandPinky4
                        {
                          OFFSET 1.549672 0.0 1e-06
                          CHANNELS 3 Zrotation Yrotation Xrotation
                          JOINT LeftHandPinkyEnd
                          {
                            OFFSET 1.944893 -0.157802 0.057219
                            CHANNELS 3 Zrotation Yrotation Xrotation
                          }
                        }
                      }
                    }
                  }
                }
              }
            }
          }
          JOINT RightShoulder
          {
            OFFSET -1.380118 23.180309 5.214158
            CHANNELS 3 Zrotation Yrotation Xrotation
            JOINT RightArm
            {
              OFFSET -15.037196 1.2e-05 -5.545604
              CHANNELS 3 Zrotation Yrotation Xrotation
              JOINT RightForeArm
              {
                OFFSET -28.736639 2e-06 -0.002597
                CHANNELS 3 Zrotation Yrotation Xrotation
                JOINT RightHand
                {
                  OFFSET -27.133619 -0.0 0.002613
                  CHANNELS 3 Zrotation Yrotation Xrotation
                  JOINT RightHandThumb1
                  {
                    OFFSET -2.274032 -1.383988 3.163127
                    CHANNELS 3 Zrotation Yrotation Xrotation
                    JOINT RightHandThumb2
                    {
                      OFFSET -4.011429 -1.827466 1.640914
                      CHANNELS 3 Zrotation Yrotation Xrotation
                      JOINT RightHandThumb3
                      {
                        OFFSET -2.794935 -4e-06 -3e-06
                        CHANNELS 3 Zrotation Yrotation Xrotation
                        JOINT RightHandThumbEnd
                        {
                          OFFSET -3.183852 4e-06 1e-06
                          CHANNELS 3 Zrotation Yrotation Xrotation
                        }
                      }
                    }
                  }
                  JOINT RightHandIndex1
                  {
                    OFFSET -3.253266 -0.520057 2.282866
                    CHANNELS 3 Zrotation Yrotation Xrotation
                    JOINT RightHandIndex2
                    {
                      OFFSET -6.341917 0.012471 0.178266
                      CHANNELS 3 Zrotation Yrotation Xrotation
                      JOINT RightHandIndex3
                      {
                        OFFSET -3.654871 -8e-06 -0.0
                        CHANNELS 3 Zrotation Yrotation Xrotation
                        JOINT RightHandIndex4
                        {
                          OFFSET -2.327586 0.0 1e-06
                          CHANNELS 3 Zrotation Yrotation Xrotation
                          JOINT RightHandIndexEnd
                          {
                            OFFSET -2.76179 -0.180656 -0.113078
                            CHANNELS 3 Zrotation Yrotation Xrotation
                          }
                        }
                      }
                    }
                  }
                  JOINT RightHandMiddle1
                  {
                    OFFSET -3.168106 0.246593 1.00103
                    CHANNELS 3 Zrotation Yrotation Xrotation
                    JOINT RightHandMiddle2
                    {
                      OFFSET -6.180828 -0.258836 -1.000895
                      CHANNELS 3 Zrotation Yrotation Xrotation
                      JOINT RightHandMiddle3
                      {
                        OFFSET -4.348901 0.0 -0.0
                        CHANNELS 3 Zrotation Yrotation Xrotation
                        JOINT RightHandMiddle4
                        {
                          OFFSET -3.00024 -4e-06 -2e-06
                          CHANNELS 3 Zrotation Yrotation Xrotation
                          JOINT RightHandMiddleEnd
                          {
                            OFFSET -2.30252 -0.29437 -0.031706
                            CHANNELS 3 Zrotation Yrotation Xrotation
                          }
                        }
                      }
                    }
                  }
                  JOINT RightHandRing1
                  {
                    OFFSET -2.88569 -0.067952 -0.308858
                    CHANNELS 3 Zrotation Yrotation Xrotation
                    JOINT RightHandRing2
                    {
                      OFFSET -5.854198 -0.48613 -1.373731
                      CHANNELS 3 Zrotation Yrotation Xrotation
                      JOINT RightHandRing3
                      {
                        OFFSET -4.33881 -4e-06 -0.0
                        CHANNELS 3 Zrotation Yrotation Xrotation
                        JOINT RightHandRing4
                        {
                          OFFSET -2.654903 -4e-06 4e-06
                          CHANNELS 3 Zrotation Yrotation Xrotation
                          JOINT RightHandRingEnd
                          {
                            OFFSET -1.933568 0.077527 -5.2e-05
                            CHANNELS 3 Zrotation Yrotation Xrotation
                          }
                        }
                      }
                    }
                  }
                  JOINT RightHandPinky1
                  {
                    OFFSET -2.866425 -0.342796 -1.584145
                    CHANNELS 3 Zrotation Yrotation Xrotation
                    JOINT RightHandPinky2
                    {
                      OFFSET -5.091371 -1.332055 -1.772385
                      CHANNELS 3 Zrotation Yrotation Xrotation
                      JOINT RightHandPinky3
                      {
                        OFFSET -3.062664 -4e-06 1e-06
                        CHANNELS 3 Zrotation Yrotation Xrotation
                        JOINT RightHandPinky4
                        {
                          OFFSET -1.546529 4e-06 -2e-06
                          CHANNELS 3 Zrotation Yrotation Xrotation
                          JOINT RightHandPinkyEnd
                          {
                            OFFSET -1.945119 -0.157718 0.057211
                            CHANNELS 3 Zrotation Yrotation Xrotation
                          }
                        }
                      }
                    }
                  }
                }
              }
            }
          }
        }
      }
    }
    JOINT LeftLeg
    {
      OFFSET 10.043214 -8.434526 2.595655
      CHANNELS 3 Zrotation Yrotation Xrotation
      JOINT LeftShin
      {
        OFFSET -1e-06 -43.221752 -0.802913
        CHANNELS 3 Zrotation Yrotation Xrotation
        JOINT LeftFoot
        {
          OFFSET 1e-06 -42.155094 -3.481523
          CHANNELS 3 Zrotation Yrotation Xrotation
          JOINT LeftToeBase
          {
            OFFSET 0.0 -5.059472 13.231529
            CHANNELS 3 Zrotation Yrotation Xrotation
            JOINT LeftToeEnd
            {
              OFFSET -0.009607 -1.647619 6.513017
              CHANNELS 3 Zrotation Yrotation Xrotation
            }
          }
        }
      }
    }
    JOINT RightLeg
    {
      OFFSET -10.047278 -8.29526 2.620317
      CHANNELS 3 Zrotation Yrotation Xrotation
      JOINT RightShin
      {
        OFFSET 1e-06 -43.362206 -0.805556
        CHANNELS 3 Zrotation Yrotation Xrotation
        JOINT RightFoot
        {
          OFFSET 2e-06 -42.117393 -3.478398
          CHANNELS 3 Zrotation Yrotation Xrotation
          JOINT RightToeBase
          {
            OFFSET -0.0 -5.079609 13.284196
            CHANNELS 3 Zrotation Yrotation Xrotation
            JOINT RightToeEnd
            {
              OFFSET 0.009532 -1.634378 6.460591
              CHANNELS 3 Zrotation Yrotation Xrotation
            }
          }
        }
      }
    }
  }
}
MOTION
Frames: 5
Frame Time: 0.03333333333333333
0.0 0.0 0.0 0.0 -0.0 0.0 2.100331 99.810829 164.913696 1.905831 -3.845663 -3.688442 -2.535953 -0.554142 1.460412 -0.739488 -1.35043 -4.892351 -1.910199 -3.350024 14.791778 -2.48065 3.52984 6.36031 -2.041922 -3.924533 -3.440683 -2.952922 -3.997865 -13.379819 7.7e-05 -2.2e-05 6e-06 0.028892 -0.055835 0.045286 0.744531 -3.777949 -10.538752 -0.695887 3.654827 -10.555982 -12.183697 -11.016794 18.983624 -48.492306 -15.997201 6.51327 -0.13315 -44.109249 0.41958 5.224471 8.086267 -10.505175 -5.882108 9.861287 0.702589 -10.93687 -0.360574 7.156204 -1e-06 8.774826 -0.0 -15.600908 18.485888 6.413446 -1.844032 2.498506 -2.507277 -10.163599 4.678945 4.621109 -20.976023 -0.0 -0.0 -21.22629 2.451698 -3.594004 2e-06 -5e-06 -0.0 -1.362681 2.240798 -0.746325 -21.334909 0.584912 3.008322 -13.821213 -1e-06 -1e-06 -23.887167 -0.249077 -0.839484 -60.248745 2.638501 -0.930953 -0.294026 1.679687 0.833257 -14.218207 0.093216 1.300579 -34.212048 -0.287558 0.967167 -20.033211 0.964539 1.21284 1e-06 -1e-06 -0.0 -3.440388 0.788233 0.501656 -15.928183 -3.167308 2.999707 -6.338825 -1e-06 1e-06 -18.123444 3.648184 -4.905673 -3e-06 1e-06 -2e-06 7.823744 10.486922 20.223373 65.837265 4.212492 24.637131 -0.069895 27.824326 0.150915 -4.494134 -4.269579 -1.361119 2.243543 -5.255039 -3.18016 14.282898 -0.826597 6.952504 -2e-06 -12.690607 2e-06 16.456142 -17.514936 2.457991 1.665668 -1.955922 -2.8783 4.727802 -4.17059 4.993926 11.020534 2e-06 -1e-06 12.10906 -3.735718 -2.866786 0.0 1e-06 0.0 1.291986 -1.92855 -1.498089 14.800136 0.567466 3.865608 14.242581 -1.341737 -6.660663 19.631977 0.143926 -0.648248 49.963085 -0.578207 -6.466563 0.353029 -1.511151 -0.031942 20.222803 3.684309 2.316628 18.787287 4e-06 -3e-06 10.751633 -0.479869 1.397905 -0.0 -1e-06 0.0 3.273808 0.305947 -0.580111 21.486826 11.830378 2.26613 8.16293 1e-06 -0.0 18.399096 -3.798987 -4.94058 4e-06 0.0 -2e-06 -3.487327 5.618264 7.998372 -0.024881 0.061467 7.288533 0.38335 1.715958 -6.117214 1.659539 -1.914889 -0.164522 -0.0 -0.0 2e-06 -3.226655 -8.140847 -17.962175 0.036699 0.051786 28.936428 3.5796 -3.509065 5.042419 -1.425963 0.917752 -3.489872 0.0 0.0 -1e-06 
0.0 0.0 0.0 0.0 -0.0 0.0 1.895255 99.648415 167.651627 2.217041 -3.503025 -2.894136 -2.600033 -0.562803 1.179227 -0.747599 -1.612978 -5.001238 -1.963349 -3.509864 14.807953 -2.493556 3.449421 5.428117 -1.930433 -3.908276 -3.418636 -2.825422 -4.091115 -13.653841 7.7e-05 -2.2e-05 6e-06 0.018151 -0.04558 0.050792 0.742783 -3.782815 -10.581165 -0.715047 3.680952 -10.599542 -11.448969 -11.481347 18.799931 -49.080551 -16.431538 5.24941 0.068369 -46.573807 0.309631 6.362277 7.861583 -10.72024 -5.882108 9.86129 0.702589 -10.936875 -0.360574 7.156207 -1e-06 8.774828 -1e-06 -15.647185 18.607821 6.396224 -1.844033 2.498506 -2.507279 -10.163604 4.678948 4.62111 -20.97603 -1e-06 3e-06 -21.226292 2.4517 -3.594 1e-06 -7e-06 -2e-06 -1.362682 2.240798 -0.746324 -21.334921 0.584911 3.008323 -13.821217 -3e-06 -1e-06 -23.887177 -0.249078 -0.839484 -60.29467 2.74441 -1.093097 -0.294026 1.679688 0.833255 -14.218212 0.093216 1.300581 -34.212059 -0.287562 0.96717 -20.033218 0.964538 1.212843 1e-06 0.0 1e-06 -3.440391 0.788234 0.501656 -15.928189 -3.16731 2.999706 -6.338827 1e-06 1e-06 -18.123453 3.648184 -4.90567 -4e-06 2e-06 -2e-06 8.050204 10.25619 20.428169 66.056236 3.631386 24.447426 -0.053201 26.687243 0.242192 -3.857022 -4.948246 -0.651169 2.243541 -5.255035 -3.180156 14.282887 -0.826593 6.952501 -4e-06 -12.690601 1e-06 16.271385 -17.428326 2.477101 1.665666 -1.955921 -2.878298 4.727797 -4.170586 4.993924 11.020523 4e-06 -0.0 12.10905 -3.735713 -2.866782 -0.0 1e-06 -1e-06 1.291985 -1.928549 -1.498088 14.800127 0.567469 3.865607 14.24257 -1.341735 -6.660654 19.631962 0.143927 -0.648242 49.818222 -0.555087 -6.547805 0.353029 -1.51115 -0.031939 20.222786 3.684311 2.31663 18.78727 5e-06 1e-06 10.751625 -0.479868 1.397905 0.0 0.0 0.0 3.273806 0.305948 -0.580109 21.486813 11.830377 2.266135 8.162926 2e-06 -0.0 18.399078 -3.798981 -4.940573 2e-06 1e-06 -2e-06 -3.798446 5.071041 9.380424 -0.017888 0.149556 6.441356 0.365288 1.607313 -5.941656 1.67676 -1.987632 -0.652426 0.0 -0.0 2e-06 -2.641253 -8.291585 -18.209196 0.111737 0.037965 16.186918 4.806439 -3.524993 7.834789 -1.426627 1.015161 -3.405819 -0.0 -0.0 -1e-06 
0.0 0.0 0.0 0.0 -0.0 0.0 1.531835 99.363785 170.546753 2.323324 -2.969661 -2.198453 -2.507741 -0.5065 0.85011 -0.750454 -1.868099 -5.186882 -1.887073 -3.679615 14.859878 -2.483728 3.390304 4.699211 -1.767851 -3.893228 -3.454137 -2.886613 -4.293781 -13.637122 7.7e-05 -2.2e-05 6e-06 0.024838 -0.001167 0.037064 0.759685 -3.747262 -10.629432 -0.71808 3.73663 -10.647978 -10.939431 -11.892015 18.563848 -49.869068 -16.336523 4.586539 0.535639 -49.452766 0.02431 7.034729 7.671199 -10.751706 -5.88211 9.861291 0.702592 -10.936877 -0.360573 7.15621 -0.0 8.774831 0.0 -15.682886 18.686861 6.396186 -1.844033 2.498504 -2.50728 -10.163604 4.67895 4.621113 -20.976034 -0.0 1e-06 -21.226297 2.4517 -3.594005 0.0 -7e-06 -1e-06 -1.362683 2.240798 -0.746323 -21.334927 0.58491 3.008324 -13.821221 -1e-06 1e-06 -23.887184 -0.249078 -0.839486 -60.311935 2.782909 -1.290204 -0.294026 1.679688 0.833255 -14.218217 0.093217 1.30058 -34.212067 -0.287561 0.967168 -20.033226 0.964537 1.212843 1e-06 -0.0 -0.0 -3.440391 0.788234 0.501655 -15.928196 -3.167308 2.99971 -6.338829 -1e-06 1e-06 -18.123457 3.648186 -4.905674 -3e-06 0.0 -2e-06 8.331008 10.033892 20.578201 66.187195 3.078931 24.372681 -0.012339 25.739828 0.337715 -3.317667 -5.610878 0.154465 2.243541 -5.255035 -3.180159 14.28289 -0.826595 6.952503 -3e-06 -12.690601 1e-06 16.058592 -17.322329 2.508282 1.665667 -1.95592 -2.878299 4.727798 -4.170586 4.99392 11.020524 3e-06 -0.0 12.10905 -3.735715 -2.866782 -0.0 1e-06 0.0 1.291986 -1.928549 -1.498089 14.800125 0.567467 3.865607 14.242566 -1.341736 -6.660655 19.631958 0.143925 -0.648244 49.643593 -0.521811 -6.563326 0.353028 -1.51115 -0.031939 20.222786 3.684308 2.316632 18.78727 4e-06 0.0 10.751625 -0.479869 1.397905 0.0 -0.0 1e-06 3.273806 0.305947 -0.580111 21.486803 11.83037 2.266132 8.162923 1e-06 -1e-06 18.399076 -3.798984 -4.940573 2e-06 1e-06 -2e-06 -3.737241 4.630338 10.910352 -0.008351 0.103498 5.811049 0.381198 1.319312 -6.041697 1.695637 -1.976735 -1.319647 0.0 -0.0 2e-06 -1.876738 -8.287814 -18.147263 0.148258 -0.044816 5.577694 8.042071 -3.187752 9.899705 -1.352406 1.121989 -3.265119 -0.0 -1e-06 -1e-06 
0.0 0.0 0.0 0.0 -0.0 0.0 1.04921 98.996956 173.608582 1.961187 -2.28111 -1.823934 -2.100097 -0.457289 0.579147 -0.686213 -2.108533 -5.361393 -1.716132 -3.877439 15.030651 -2.350534 3.299027 4.233615 -1.63124 -3.685307 -3.514302 -3.176773 -4.480227 -13.540719 7.7e-05 -2.2e-05 6e-06 0.044414 0.046582 0.015751 0.767308 -3.704978 -10.641805 -0.685831 3.7939 -10.646623 -10.924884 -12.11214 18.466686 -50.465164 -15.868314 4.000709 0.777013 -52.403595 -0.208465 7.451569 7.348426 -10.761091 -5.882108 9.861288 0.702591 -10.936875 -0.360574 7.156208 0.0 8.77483 1e-06 -15.721934 18.706909 6.410158 -1.844034 2.498506 -2.507279 -10.163605 4.678948 4.621112 -20.976036 -2e-06 -1e-06 -21.226299 2.451699 -3.594004 1e-06 -7e-06 -1e-06 -1.362682 2.240798 -0.746324 -21.334925 0.584912 3.008322 -13.82122 -2e-06 -0.0 -23.887184 -0.249082 -0.839487 -60.459 2.771468 -1.235055 -0.294024 1.679687 0.833257 -14.218215 0.093215 1.300579 -34.212067 -0.287563 0.967166 -20.033226 0.964535 1.212841 -1e-06 -0.0 -1e-06 -3.440391 0.788235 0.501656 -15.928192 -3.167308 2.999706 -6.338829 -2e-06 1e-06 -18.123453 3.648184 -4.905673 -4e-06 1e-06 -2e-06 8.946473 9.897449 20.758324 65.918472 2.672727 24.439569 -0.092556 25.049496 0.409807 -2.815146 -6.162979 0.378297 2.243543 -5.255038 -3.18016 14.282898 -0.826594 6.952506 -3e-06 -12.690607 2e-06 15.908544 -17.294233 2.522218 1.665668 -1.955921 -2.878302 4.727802 -4.170588 4.993927 11.020535 4e-06 -1e-06 12.109059 -3.735716 -2.866784 -1e-06 1e-06 0.0 1.291986 -1.928549 -1.498088 14.800138 0.56747 3.865608 14.24258 -1.341735 -6.660659 19.631981 0.143926 -0.648244 49.404758 -0.487535 -6.680802 0.353029 -1.511151 -0.031941 20.222803 3.684311 2.31663 18.787283 6e-06 -1e-06 10.751635 -0.479868 1.397906 -1e-06 -0.0 1e-06 3.273808 0.305947 -0.580112 21.486824 11.830378 2.266131 8.16293 2e-06 -1e-06 18.399088 -3.798986 -4.940577 3e-06 0.0 -3e-06 -2.987092 4.129847 12.772574 -0.031339 -0.046984 5.495951 0.25934 0.982962 -6.359062 1.732268 -1.913036 -2.048928 -0.0 -0.0 2e-06 -0.654123 -8.220366 -18.628342 0.05826 -0.065416 0.988612 11.544367 -3.466314 10.07128 -1.279674 1.142572 -3.102972 -0.0 -0.0 -1e-06 
0.0 0.0 0.0 0.0 -0.0 0.0 0.567013 98.558731 176.814911 1.329016 -1.492284 -1.814303 -1.399298 -0.461628 0.340837 -0.583314 -2.332521 -5.445609 -1.534658 -4.058654 15.391795 -2.227146 3.08404 3.68627 -1.648142 -3.357161 -3.424046 -3.496965 -4.611003 -13.621557 7.7e-05 -2.2e-05 6e-06 0.061277 0.040014 0.011284 0.772985 -3.714247 -10.612885 -0.657695 3.791818 -10.620676 -11.280401 -12.261632 18.713284 -50.926052 -15.374274 3.200779 0.381983 -54.806072 0.013124 7.971817 6.551843 -10.862829 -5.88211 9.86129 0.702589 -10.936878 -0.360575 7.15621 1e-06 8.774828 -0.0 -15.884912 18.603998 6.260081 -1.844035 2.498506 -2.507279 -10.163604 4.678946 4.621109 -20.976038 -5e-06 -1e-06 -21.226301 2.451696 -3.594002 1e-06 -6e-06 -1e-06 -1.362683 2.240798 -0.746324 -21.334929 0.584908 3.008322 -13.821223 -6e-06 -1e-06 -23.887186 -0.249084 -0.839483 -60.567879 2.757967 -1.266943 -0.294024 1.679688 0.833258 -14.218219 0.093216 1.30058 -34.212074 -0.287568 0.96717 -20.03323 0.964534 1.212844 -1e-06 0.0 0.0 -3.44039 0.788234 0.501657 -15.928196 -3.167312 2.999707 -6.33883 -1e-06 0.0 -18.123457 3.648183 -4.905676 -2e-06 0.0 -2e-06 9.726912 9.721285 21.096809 65.286011 2.762139 24.853811 -0.344717 24.473795 0.345942 -2.436055 -6.381451 -0.191343 2.243543 -5.25504 -3.180161 14.282904 -0.826595 6.95251 -4e-06 -12.690614 3e-06 15.937133 -17.217503 2.393759 1.665668 -1.955922 -2.878302 4.727802 -4.170589 4.993929 11.020536 5e-06 -1e-06 12.10906 -3.735715 -2.866786 -0.0 0.0 0.0 1.291986 -1.92855 -1.498092 14.80014 0.56747 3.865612 14.242582 -1.341734 -6.660661 19.631985 0.143927 -0.648244 49.071564 -0.4722 -6.863593 0.353029 -1.511151 -0.031937 20.222811 3.684315 2.316633 18.787289 6e-06 2e-06 10.751637 -0.479869 1.397909 -0.0 -0.0 -0.0 3.273809 0.305947 -0.580109 21.486834 11.830384 2.266135 8.162935 2e-06 -0.0 18.399099 -3.798986 -4.940578 3e-06 0.0 -3e-06 -1.998267 3.210109 14.930662 -0.02308 -0.057838 5.451963 0.103175 0.651991 -6.613788 1.795536 -1.895769 -2.717555 0.0 -0.0 2e-06 0.719656 -9.105767 -19.194664 0.023566 -0.087055 2.83887 10.530038 -3.320136 11.867256 -1.300292 1.090253 -3.096379 -0.0 -0.0 -1e-06 
